<svg width="1200" height="630" viewBox="0 0 1200 630" fill="none" xmlns="http://www.w3.org/2000/svg">
  <!-- Background -->
  <rect width="1200" height="630" fill="#000000"/>

  <!-- Decorative elements -->
  <rect x="0" y="0" width="8" height="630" fill="#ffffff" opacity="0.1"/>
  <rect x="1192" y="0" width="8" height="630" fill="#ffffff" opacity="0.1"/>

  <!-- Logo Symbol (simplified R mark) -->
  <g transform="translate(500, 140) scale(0.35)">
    <path d="M556.595 515.713C551.296 465.626 581.752 421.16 634.032 402.603C688.057 383.436 757.38 415.4 777.52 468.712C790.159 502.169 786.11 533.347 765.097 564.268C758.374 574.175 752.858 583.395 752.858 584.751C752.858 586.108 770 603.957 790.952 624.421C830.71 663.225 846.287 672.818 876.899 677.339C894.239 679.915 897.496 683.551 897.496 700.437C897.496 715.77 889.161 721.805 871.661 719.132C853.113 716.301 825.514 705.784 811.347 696.132C796.171 685.792 689.348 580.918 689.466 576.475C689.527 574.47 698.117 567.708 708.574 561.457C773.73 522.377 740.263 430.733 663.142 439.756C650.53 441.226 638.473 443.258 629.259 449.136C615.465 457.935 606.371 474.212 603.198 490.263C602.788 492.336 602.406 494.606 601.99 497.149C601.061 502.819 600.481 508.57 600.767 514.309C601.97 538.426 609.068 550.689 632.07 571.128C663.974 599.494 759.722 702.187 759.821 708.143C759.921 714.158 754.126 718.405 737.205 724.793C728.809 727.958 726.253 726.248 704.349 702.953C691.272 689.055 656.393 653.18 626.832 623.241C568.499 564.13 560.385 551.726 556.595 515.713Z" fill="#ffffff"/>
    <path d="M764.212 399.759C763.855 399.896 763.533 400.078 763.219 400.296C760.559 402.139 760.033 405.857 762.079 408.364L772.004 420.53C784.681 433.308 792.361 438.065 803.016 439.756C824.92 443.216 845.792 459.414 854.641 479.818C863.509 500.242 864.183 515.753 857.06 535.764C849.818 556.071 836.325 572.367 816.09 585.243C806.524 591.317 798.73 598.178 798.73 600.478C798.73 602.778 804.243 609.972 811.012 616.459C822.657 627.664 823.766 627.998 832.794 623.261C853.269 612.528 879.699 584.476 891.226 561.28C901.405 540.797 904.078 534.266 903.998 509.576C903.918 487.874 900.75 477.852 894.38 463.738C884.541 441.938 857.951 416.186 834.821 406.062C816.291 397.932 777.761 394.552 764.212 399.759Z" fill="#ffffff"/>
  </g>

  <!-- Company Name -->
  <text x="600" y="380" font-family="system-ui, -apple-system, sans-serif" font-size="72" font-weight="700" fill="#ffffff" text-anchor="middle" letter-spacing="-2">
    ReRedo
  </text>

  <!-- Tagline -->
  <text x="600" y="440" font-family="system-ui, -apple-system, sans-serif" font-size="28" font-weight="400" fill="#ffffff" opacity="0.7" text-anchor="middle">
    Digital Redovisningsbyrå i Göteborg
  </text>

  <!-- Separator line -->
  <rect x="500" y="470" width="200" height="2" fill="#ffffff" opacity="0.3"/>

  <!-- Services -->
  <text x="600" y="520" font-family="system-ui, -apple-system, sans-serif" font-size="18" font-weight="400" fill="#ffffff" opacity="0.5" text-anchor="middle">
    Bokföring • Ekonomistyrning • Rådgivning
  </text>

  <!-- Website URL -->
  <text x="600" y="580" font-family="system-ui, -apple-system, sans-serif" font-size="20" font-weight="500" fill="#ffffff" opacity="0.6" text-anchor="middle">
    www.reredo.se
  </text>
</svg>
