<svg width="792" height="400" viewBox="0 0 792 400" fill="none" xmlns="http://www.w3.org/2000/svg">
<path d="M190.403 271.8C181.07 271.8 172.87 270.2 165.803 267C158.87 263.8 153.07 259.533 148.403 254.2C143.87 248.733 140.403 242.667 138.003 236C135.736 229.333 134.603 222.533 134.603 215.6V211.8C134.603 204.6 135.736 197.667 138.003 191C140.403 184.2 143.87 178.2 148.403 173C153.07 167.667 158.803 163.467 165.603 160.4C172.403 157.2 180.27 155.6 189.203 155.6C200.936 155.6 210.736 158.2 218.603 163.4C226.603 168.467 232.603 175.2 236.603 183.6C240.603 191.867 242.603 200.8 242.603 210.4V220.4H146.403V203.4H225.203L216.603 211.8C216.603 204.867 215.603 198.933 213.603 194C211.603 189.067 208.536 185.267 204.403 182.6C200.403 179.933 195.336 178.6 189.203 178.6C183.07 178.6 177.87 180 173.603 182.8C169.336 185.6 166.07 189.667 163.803 195C161.67 200.2 160.603 206.467 160.603 213.8C160.603 220.6 161.67 226.667 163.803 232C165.936 237.2 169.203 241.333 173.603 244.4C178.003 247.333 183.603 248.8 190.403 248.8C197.203 248.8 202.736 247.467 207.003 244.8C211.27 242 214.003 238.6 215.203 234.6H240.803C239.203 242.067 236.136 248.6 231.603 254.2C227.07 259.8 221.27 264.133 214.203 267.2C207.27 270.267 199.336 271.8 190.403 271.8ZM451.919 271.8C442.585 271.8 434.385 270.2 427.319 267C420.385 263.8 414.585 259.533 409.919 254.2C405.385 248.733 401.919 242.667 399.519 236C397.252 229.333 396.119 222.533 396.119 215.6V211.8C396.119 204.6 397.252 197.667 399.519 191C401.919 184.2 405.385 178.2 409.919 173C414.585 167.667 420.319 163.467 427.119 160.4C433.919 157.2 441.785 155.6 450.719 155.6C462.452 155.6 472.252 158.2 480.119 163.4C488.119 168.467 494.119 175.2 498.119 183.6C502.119 191.867 504.119 200.8 504.119 210.4V220.4H407.919V203.4H486.719L478.119 211.8C478.119 204.867 477.119 198.933 475.119 194C473.119 189.067 470.052 185.267 465.919 182.6C461.919 179.933 456.852 178.6 450.719 178.6C444.585 178.6 439.385 180 435.119 182.8C430.852 185.6 427.585 189.667 425.319 195C423.185 200.2 422.119 206.467 422.119 213.8C422.119 220.6 423.185 226.667 425.319 232C427.452 237.2 430.719 241.333 435.119 244.4C439.519 247.333 445.119 248.8 451.919 248.8C458.719 248.8 464.252 247.467 468.519 244.8C472.785 242 475.519 238.6 476.719 234.6H502.319C500.719 242.067 497.652 248.6 493.119 254.2C488.585 259.8 482.785 264.133 475.719 267.2C468.785 270.267 460.852 271.8 451.919 271.8ZM574.342 271.6C566.742 271.6 559.742 270.2 553.342 267.4C546.942 264.6 541.409 260.667 536.742 255.6C532.075 250.533 528.475 244.667 525.942 238C523.409 231.2 522.142 223.867 522.142 216V211.8C522.142 204.067 523.342 196.8 525.742 190C528.275 183.2 531.742 177.267 536.142 172.2C540.675 167.133 546.075 163.2 552.342 160.4C558.742 157.467 565.809 156 573.542 156C582.075 156 589.542 157.867 595.942 161.6C602.475 165.2 607.675 170.667 611.542 178C615.409 185.333 617.542 194.533 617.942 205.6L609.742 196V122H637.542V268H615.542V221.8H620.342C619.942 232.867 617.675 242.133 613.542 249.6C609.409 256.933 603.942 262.467 597.142 266.2C590.475 269.8 582.875 271.6 574.342 271.6ZM580.542 248.2C586.009 248.2 591.009 247 595.542 244.6C600.075 242.067 603.675 238.467 606.342 233.8C609.142 229 610.542 223.4 610.542 217V209C610.542 202.6 609.142 197.267 606.342 193C603.542 188.6 599.875 185.267 595.342 183C590.809 180.6 585.875 179.4 580.542 179.4C574.542 179.4 569.209 180.867 564.542 183.8C560.009 186.6 556.409 190.6 553.742 195.8C551.209 201 549.942 207.067 549.942 214C549.942 220.933 551.275 227 553.942 232.2C556.609 237.267 560.209 241.2 564.742 244C569.409 246.8 574.675 248.2 580.542 248.2ZM723.386 271.8C713.786 271.8 705.319 270.267 697.986 267.2C690.652 264.133 684.452 260 679.386 254.8C674.319 249.467 670.452 243.467 667.786 236.8C665.252 230.133 663.986 223.2 663.986 216V211.8C663.986 204.333 665.319 197.267 667.986 190.6C670.786 183.8 674.719 177.8 679.786 172.6C684.986 167.267 691.252 163.133 698.586 160.2C705.919 157.133 714.186 155.6 723.386 155.6C732.586 155.6 740.852 157.133 748.186 160.2C755.519 163.133 761.719 167.267 766.786 172.6C771.986 177.8 775.919 183.8 778.586 190.6C781.252 197.267 782.586 204.333 782.586 211.8V216C782.586 223.2 781.252 230.133 778.586 236.8C776.052 243.467 772.252 249.467 767.186 254.8C762.119 260 755.919 264.133 748.586 267.2C741.252 270.267 732.852 271.8 723.386 271.8ZM723.386 248C730.186 248 735.919 246.533 740.586 243.6C745.252 240.533 748.786 236.467 751.186 231.4C753.586 226.2 754.786 220.333 754.786 213.8C754.786 207.133 753.519 201.267 750.986 196.2C748.586 191 744.986 186.933 740.186 184C735.519 180.933 729.919 179.4 723.386 179.4C716.852 179.4 711.186 180.933 706.386 184C701.719 186.933 698.119 191 695.586 196.2C693.052 201.267 691.786 207.133 691.786 213.8C691.786 220.333 692.986 226.2 695.386 231.4C697.919 236.467 701.519 240.533 706.186 243.6C710.852 246.533 716.586 248 723.386 248Z" fill="black"/>
<path d="M80.9365 133.068C82.5714 132.936 85.0413 133.025 86.7139 133.097C96.1849 133.437 104.791 136.637 112.009 142.617C123.493 152.134 126.443 165.17 125.917 179.351C125.919 182.773 125.876 186.185 125.452 189.586C123.612 204.346 104.311 206.358 87.1953 207.392C82.8762 207.653 80.8716 212.953 83.8594 216.083C93.1527 225.817 106.317 240.105 111.247 245.083C115.677 249.556 120.229 254.018 124.725 258.497C127.85 261.612 125.634 266.877 121.222 266.876L107.339 266.874C103.502 266.877 98.989 266.981 95.0137 266.881C93.8802 266.853 92.7953 266.42 91.9629 265.65C87.9428 261.931 83.2181 256.751 79.4883 253.05L43.5537 216.959L34.6982 208.09C32.9893 206.381 29.006 207.941 29.0068 210.359C29.0085 215.129 28.9701 219.929 28.9697 224.63L28.9707 261.754C28.9708 264.566 26.6533 266.824 23.8418 266.796C17.675 266.735 11.1927 266.814 5.00586 266.855C2.24204 266.873 -0.000132005 264.633 5.82891e-09 261.869L0.00585938 166.966C0.00601551 164.205 2.24391 161.967 5.00488 161.966L19.6904 161.964C21.7619 161.961 27.7987 162.23 28.5313 162.012C34.261 167.709 40.1934 173.492 45.8408 179.224L54.8691 188.349C55.8662 189.367 61.3786 195.319 62.4277 195.607C64.0965 196.064 69.1378 195.89 71.0801 195.886L83.3682 195.873C87.4229 195.862 91.2937 195.125 94.2646 192.152C98.5574 187.309 97.7095 181.181 97.6162 175.174C97.5212 169.077 93.83 162.937 87.3467 162.357C84.5949 162.051 82.0092 162.109 79.2383 162.114L65.7031 162.21L36.6641 162.226C33.982 162.211 31.2541 161.961 28.6035 161.964C28.6031 161.957 28.6 161.949 28.5918 161.941C21.9451 155.458 15.3986 148.581 8.80664 141.883C5.65282 138.678 7.90956 133.156 12.4063 133.156L55.1377 133.148L71.2842 133.149C74.337 133.149 77.9267 133.239 80.9365 133.068Z" fill="black"/>
<path d="M342.937 133.068C344.571 132.937 347.041 133.024 348.714 133.097C358.185 133.437 366.791 136.637 374.009 142.617C385.493 152.134 388.443 165.17 387.917 179.352C387.919 182.774 387.876 186.186 387.452 189.587C385.612 204.346 366.311 206.358 349.195 207.392C344.876 207.653 342.871 212.954 345.859 216.084C355.153 225.818 368.317 240.106 373.247 245.084C377.677 249.557 382.229 254.018 386.725 258.497C389.85 261.611 387.634 266.877 383.222 266.877L369.339 266.874C365.502 266.876 360.989 266.982 357.014 266.882C355.88 266.853 354.795 266.42 353.963 265.650C349.943 261.932 345.218 256.750 341.488 253.050L305.554 216.959L296.698 208.091C294.989 206.381 291.006 207.941 291.007 210.358C291.009 215.129 290.970 219.929 290.970 224.630L290.971 261.754C290.971 264.566 288.653 266.823 285.842 266.796C279.675 266.735 273.193 266.813 267.006 266.854C264.242 266.873 262 264.633 262 261.869L262.006 166.966C262.006 164.205 264.244 161.966 267.005 161.966L281.690 161.964C283.762 161.961 289.799 162.230 290.531 162.012C296.261 167.708 302.193 173.492 307.841 179.224L316.869 188.350C317.867 189.369 323.379 195.319 324.428 195.606C326.096 196.064 331.138 195.889 333.080 195.886L345.368 195.873C349.423 195.862 353.294 195.125 356.265 192.151C360.557 187.309 359.709 181.181 359.616 175.174C359.521 169.077 355.830 162.937 349.347 162.357C346.595 162.052 344.009 162.108 341.238 162.113L327.703 162.210L298.664 162.227C295.982 162.212 293.254 161.960 290.604 161.964C290.603 161.957 290.600 161.949 290.592 161.941C283.945 155.458 277.399 148.582 270.807 141.884C267.652 138.679 269.909 133.157 274.406 133.156L317.138 133.147L333.284 133.149C336.337 133.150 339.927 133.240 342.937 133.068Z" fill="black"/>
</svg>
