<svg width="1431" height="1284" viewBox="0 0 1431 1284" fill="none" xmlns="http://www.w3.org/2000/svg">
<path d="M1092.91 808.059C1104.69 807.769 1117.38 808.158 1129.22 808.315L1129.29 1076.84C1117.72 1076.96 1106.02 1076.86 1094.44 1076.84C1093.83 1066.18 1093.65 1055.56 1093.01 1044.86C1078.77 1067.83 1063.27 1080.21 1035.5 1081.33C1018.69 1082.01 1005.84 1078.43 990.764 1071.41C949.636 1044.6 941.936 1000.39 947.433 954.259C950.386 929.48 962.407 905.464 982.445 890.21C1000.27 876.633 1022.92 872.042 1044.89 875.081C1067.71 878.212 1078.88 889.927 1092.08 907.424C1092.86 885.474 1091.93 862.504 1092.2 840.448C1092.32 830.805 1091.7 817.446 1092.91 808.059ZM1047 1048.36C1060.47 1045.68 1073.36 1038.78 1080.37 1026.6C1105.84 982.333 1095.96 902.603 1030.99 906.628C1015.18 910.246 1005.62 915.206 996.367 929.177C969.845 969.223 984.116 1058.77 1047 1048.36Z" fill="#010100"/>
<path d="M92.1621 806.151C103.018 805.474 115.718 806.164 126.849 806.164C155.193 806.263 184.009 803.053 210.797 814.821C265.146 838.692 268.284 928.21 217.105 957.021C209.917 961.067 200.888 963.954 192.975 966.757C205.491 985.129 220.394 1003.04 234.36 1022.37C247.423 1040.44 283.66 1077.11 231.689 1076.11C217.632 1075.83 207.907 1069.9 199.06 1058.99C188.683 1046.2 179.681 1031.96 169.741 1018.45C159.303 1004.53 148.964 990.542 138.726 976.479C129.32 963.382 109.3 942.149 126.614 928.5C142.694 919.396 161.855 927.204 180.108 922.165C215.415 912.417 211.893 858.557 176.872 851.703C168.922 850.045 160.552 849.809 152.43 849.894C139.73 850.032 126.894 849.631 114.228 850.552C99.323 851.637 99.2678 862.484 99.5755 874.41C99.7886 882.685 99.9445 891.315 99.9747 899.636L100.022 1002.59C100.017 1020.15 100.34 1038.48 99.5834 1056C99.131 1060.1 98.1452 1066.8 95.3338 1069.83C87.7165 1078.09 71.1225 1076.82 61.4101 1073.67C52.7447 1070.86 50.2858 1064.17 50.057 1055.93C49.6773 1042.26 49.8045 1028.23 49.7535 1014.58L49.7508 928.191L49.7038 872.154C49.6813 860.998 49.3322 848.408 50.4898 837.363C52.8057 815.281 72.3273 806.829 92.1621 806.151Z" fill="#010100"/>
<path d="M537.762 806.079C546.446 805.526 561.093 806.033 570.328 806.04C600.757 806.224 633.662 802.54 662.068 815.966C701.533 834.62 712.39 889.013 694.253 926.204C681.994 951.338 667.296 957.627 642.534 966.342C653.235 984.063 706.747 1047.61 708.253 1060.23C708.674 1063.77 707.53 1067.06 705.261 1069.75C701.664 1074.01 696.166 1075.61 690.813 1076.11C679.561 1077.17 665.113 1075.16 656.324 1067.39C644.185 1056.64 623.665 1024.92 612.884 1010.17C599.298 991.575 583.997 973.275 572.074 953.601C569.999 950.18 567.973 946.918 567.839 942.8C567.663 937.426 569.936 933.427 573.516 929.651C588.034 920.699 605.081 925.981 621.283 923.626C644.942 920.192 657.584 904.727 653.528 880.731C647.36 844.231 608.474 849.638 580.87 850.532C574.543 850.861 565.284 849.71 559.356 850.914C543.008 854.242 548.954 889.217 549.003 901.458L549.094 999.751C549.129 1019.04 549.516 1038.34 548.464 1057.62C547.86 1068.69 541.562 1073.91 530.753 1075.73C522.516 1077.11 512.36 1075.72 505.399 1070.88C500.521 1067.48 500.032 1062.04 499.407 1056.59C498.473 1042.34 498.73 1027.16 498.762 1012.86L498.956 936.156L498.945 877.331C498.71 843.336 492.886 809.131 537.762 806.079Z" fill="#010100"/>
<path d="M1263.58 874.476C1284.12 872.529 1308.6 879.994 1325.55 892.473C1370.47 925.52 1372.66 1006.12 1341.17 1048.67C1325.68 1069.6 1301.49 1078.27 1275.96 1081.34C1251.73 1082.25 1229.51 1077.82 1210.37 1061.98C1166.12 1025.38 1164.31 947.746 1199.57 904.609C1215.98 884.527 1238.76 876.883 1263.58 874.476ZM1273.97 1049.49C1284.25 1047.61 1293.26 1044.7 1301.47 1037.9C1333.13 1011.68 1332.97 938.393 1298.15 914.719C1289.62 908.917 1275.29 905.017 1265.03 905.984C1221.04 912.377 1208.64 954.745 1214.21 993.647C1219.12 1027.82 1238.41 1049.74 1273.97 1049.49Z" fill="#010100"/>
<path d="M369.835 874.476C371.876 874.298 373.925 874.219 375.974 874.252C398.314 874.482 421.247 881.922 436.753 898.419C461.467 924.711 463.242 955.423 462.545 988.99C414.846 988.878 366.774 990.154 319.086 988.694C320.373 998.719 322.098 1006.39 325.521 1016.02C335.826 1045.03 370.896 1056.85 398.426 1046.3C410.888 1041.51 418.995 1032.21 424.212 1019.79L433.108 1021.72L461.199 1027.21C448.983 1060.31 424.643 1077.05 390.148 1080.95C332.391 1087.32 286.953 1052.06 282.308 993.417C277.33 930.578 302.761 880.784 369.835 874.476ZM319.874 959.343C339.13 959.58 358.387 959.639 377.644 959.527C393.734 959.679 410.505 960.087 426.536 959.547C423.722 941.649 418.906 925.355 403.358 914.213C393.773 907.457 382.008 904.53 370.374 906.003C339.587 910.391 323.089 928.315 319.874 959.343Z" fill="#010100"/>
<path d="M821.76 874.502C842.706 872.496 871.207 883.284 885.675 898.761C909.929 924.711 911.441 955.252 910.737 988.767C862.823 988.444 814.901 988.563 766.986 989.122C768.025 997.811 769.775 1004 772.307 1012.38C783.342 1048.91 831.039 1062.19 860.008 1038.15C866.15 1033.06 868.991 1027.11 872.306 1019.79L884.36 1022.36L909.547 1027.32C906.496 1036.05 901.064 1046.11 895.132 1053.09C864.894 1088.68 798.507 1090.47 763.79 1060.71C743.456 1043.28 732.796 1019.39 730.935 993.016C728.732 961.797 732.704 928.967 753.88 904.51C772.866 882.554 794.061 876.64 821.76 874.502ZM768.032 959.357L823.233 959.6C840.174 959.528 857.114 959.719 874.055 960.179C871.523 942.241 867.775 926.303 852.452 914.39C844.179 907.951 831.217 904.754 820.807 905.392C788.162 908.286 773.043 928.151 768.032 959.357Z" fill="#010100"/>
<path fill-rule="evenodd" clip-rule="evenodd" d="M556.595 515.713C551.296 465.626 581.752 421.16 634.032 402.603C688.057 383.436 757.38 415.4 777.52 468.712C790.159 502.169 786.11 533.347 765.097 564.268C758.374 574.175 752.858 583.395 752.858 584.751C752.858 586.108 770 603.957 790.952 624.421C830.71 663.225 846.287 672.818 876.899 677.339C894.239 679.915 897.496 683.551 897.496 700.437C897.496 715.77 889.161 721.805 871.661 719.132C853.113 716.301 825.514 705.784 811.347 696.132C796.171 685.792 689.348 580.918 689.466 576.475C689.527 574.47 698.117 567.708 708.574 561.457C773.73 522.377 740.263 430.733 663.142 439.756C650.53 441.226 638.473 443.258 629.259 449.136C615.465 457.935 606.371 474.212 603.198 490.263C602.788 492.336 602.406 494.606 601.99 497.149C601.061 502.819 600.481 508.57 600.767 514.309C601.97 538.426 609.068 550.689 632.07 571.128C663.974 599.494 759.722 702.187 759.821 708.143C759.921 714.158 754.126 718.405 737.205 724.793C728.809 727.958 726.253 726.248 704.349 702.953C691.272 689.055 656.393 653.18 626.832 623.241C568.499 564.13 560.385 551.726 556.595 515.713Z" fill="url(#paint0_linear_1243_30)"/>
<path d="M764.212 399.759C763.855 399.896 763.533 400.078 763.219 400.296C760.559 402.139 760.033 405.857 762.079 408.364L772.004 420.53C784.681 433.308 792.361 438.065 803.016 439.756C824.92 443.216 845.792 459.414 854.641 479.818C863.509 500.242 864.183 515.753 857.06 535.764C849.818 556.071 836.325 572.367 816.09 585.243C806.524 591.317 798.73 598.178 798.73 600.478C798.73 602.778 804.243 609.972 811.012 616.459C822.657 627.664 823.766 627.998 832.794 623.261C853.269 612.528 879.699 584.476 891.226 561.28C901.405 540.797 904.078 534.266 903.998 509.576C903.918 487.874 900.75 477.852 894.38 463.738C884.541 441.938 857.951 416.186 834.821 406.062C816.291 397.932 777.761 394.552 764.212 399.759Z" fill="url(#paint1_linear_1243_30)"/>
<path d="M764.212 399.759C763.855 399.896 763.533 400.078 763.219 400.296C760.559 402.139 760.033 405.857 762.079 408.364L772.004 420.53C784.681 433.308 792.361 438.065 803.016 439.756C824.92 443.216 845.792 459.414 854.641 479.818C863.509 500.242 864.183 515.753 857.06 535.764C849.818 556.071 836.325 572.367 816.09 585.243C806.524 591.317 798.73 598.178 798.73 600.478C798.73 602.778 804.243 609.972 811.012 616.459C822.657 627.664 823.766 627.998 832.794 623.261C853.269 612.528 879.699 584.476 891.226 561.28C901.405 540.797 904.078 534.266 903.998 509.576C903.918 487.874 900.75 477.852 894.38 463.738C884.541 441.938 857.951 416.186 834.821 406.062C816.291 397.932 777.761 394.552 764.212 399.759Z" fill="url(#paint2_linear_1243_30)"/>
<defs>
<linearGradient id="paint0_linear_1243_30" x1="1203.76" y1="421.356" x2="1203.76" y2="750.356" gradientUnits="userSpaceOnUse">
<stop stop-color="#0E0E0E"/>
<stop offset="0.0001"/>
</linearGradient>
<linearGradient id="paint1_linear_1243_30" x1="730.002" y1="397" x2="730.002" y2="726" gradientUnits="userSpaceOnUse">
<stop stop-color="#0E0E0E"/>
<stop offset="0.0001"/>
</linearGradient>
<linearGradient id="paint2_linear_1243_30" x1="730" y1="397" x2="730" y2="726" gradientUnits="userSpaceOnUse">
<stop stop-color="#0E0E0E"/>
<stop offset="0.0001"/>
</linearGradient>
</defs>
</svg>
